<?xml version="1.0" standalone="no"?>
<!DOCTYPE svg PUBLIC "-//W3C//DTD SVG 20010904//EN"
 "http://www.w3.org/TR/2001/REC-SVG-20010904/DTD/svg10.dtd">
<svg version="1.0" xmlns="http://www.w3.org/2000/svg"
 width="260.000000pt" height="260.000000pt" viewBox="0 0 260.000000 260.000000"
 preserveAspectRatio="xMidYMid meet">
<metadata>
Created by potrace 1.11, written by Peter Selinger 2001-2013
</metadata>
<g transform="translate(0.000000,260.000000) scale(0.100000,-0.100000)"
fill="#000000" stroke="none">
<path d="M0 1300 l0 -1300 1300 0 1300 0 0 1300 0 1300 -1300 0 -1300 0 0
-1300z m1240 1134 c58 -9 121 -22 140 -29 19 -7 55 -19 80 -26 114 -32 348
-150 385 -194 5 -6 37 -32 70 -58 33 -25 79 -65 102 -89 38 -40 203 -278 203
-293 0 -4 7 -22 16 -41 9 -19 14 -37 12 -39 -9 -9 -86 54 -110 88 -31 46 -88
110 -93 105 -2 -2 11 -33 30 -68 19 -37 34 -80 35 -99 l0 -34 -25 23 c-14 13
-25 31 -25 40 0 35 -211 296 -266 330 -13 8 -24 19 -24 24 0 6 5 5 12 -2 17
-17 48 -15 48 2 0 36 -206 175 -351 238 -235 101 -434 113 -714 42 -33 -8
-111 -40 -173 -71 -142 -69 -250 -164 -332 -292 -98 -154 -130 -270 -130 -478
0 -124 -9 -176 -24 -138 -3 9 -11 58 -16 108 -19 172 10 330 94 510 39 83 111
167 210 246 88 70 108 80 326 166 19 8 62 17 95 21 33 3 67 10 75 15 25 14
239 10 350 -7z m-207 -141 c-7 -2 -21 -2 -30 0 -10 3 -4 5 12 5 17 0 24 -2 18
-5z m-269 -288 c11 -8 32 -15 46 -15 14 0 30 -4 35 -8 6 -5 42 -19 80 -32 182
-59 302 -140 429 -290 57 -67 82 -120 58 -120 -5 0 -31 20 -58 45 -27 25 -83
63 -126 85 -53 28 -89 55 -119 91 -71 85 -208 161 -341 189 -109 24 -122 24
-115 6 9 -23 -4 -26 -32 -8 -14 10 -38 23 -53 30 -28 11 -34 22 -21 35 3 4 49
7 102 7 69 -1 102 -5 115 -15z m-80 -160 c-7 -18 -8 -18 -14 1 -9 23 -1 39 11
27 6 -6 6 -18 3 -28z m-372 -47 c-7 -7 -12 -8 -12 -2 0 14 12 26 19 19 2 -3
-1 -11 -7 -17z m-31 -114 c-9 -28 -9 -29 -10 -3 -1 14 2 29 6 32 11 12 13 2 4
-29z m437 -44 c61 -32 211 -100 221 -100 6 0 30 -6 53 -14 107 -34 242 -66
343 -81 118 -18 443 -22 473 -6 9 5 53 12 97 16 44 3 96 10 115 15 19 5 69 16
110 25 149 32 215 50 228 62 7 7 22 13 33 13 11 0 29 5 41 11 26 14 34 5 20
-25 -14 -31 -72 -65 -72 -42 0 25 -15 26 -66 1 -118 -56 -324 -123 -449 -146
-112 -21 -159 -24 -335 -23 -208 1 -273 9 -465 59 -33 8 -86 20 -118 26 -46 8
-70 21 -115 57 -74 61 -109 77 -129 60 -31 -25 1 -243 55 -371 15 -38 31 -35
32 6 0 9 14 36 30 59 23 31 30 36 30 21 0 -11 8 -27 19 -37 17 -16 19 -14 37
36 14 38 25 54 40 56 20 3 21 -3 28 -93 6 -91 11 -120 35 -220 36 -146 65
-212 141 -320 27 -38 69 -100 94 -136 24 -37 94 -113 155 -170 111 -104 144
-145 74 -91 -21 16 -72 53 -113 84 -42 30 -94 74 -115 98 -22 23 -76 81 -120
129 -152 164 -188 198 -193 178 -2 -9 16 -50 40 -90 24 -39 48 -81 52 -92 10
-27 -84 65 -139 136 -73 93 -195 347 -195 404 0 12 -7 30 -15 41 -8 10 -15 35
-15 54 0 19 -7 64 -16 100 -12 50 -14 92 -8 180 6 113 15 150 35 150 5 0 27
-9 47 -20z m-434 -212 c3 -13 6 -37 6 -55 0 -17 4 -34 9 -38 5 -3 19 -35 31
-71 12 -36 39 -91 60 -123 20 -31 43 -67 50 -81 18 -33 133 -153 197 -204 45
-36 163 -184 163 -205 0 -4 18 -25 40 -46 22 -21 40 -45 40 -52 0 -20 -27 -15
-43 8 -8 11 -29 31 -48 44 -73 55 -330 309 -367 364 -66 99 -144 315 -159 444
-5 40 11 52 21 15z m-143 -135 c-9 -15 -10 -12 -10 17 0 29 1 32 10 18 7 -12
7 -24 0 -35z m2359 32 c0 -14 -89 -107 -122 -129 -25 -16 -28 -17 -28 -2 0 9
-2 16 -5 16 -3 0 -45 -18 -93 -40 -177 -79 -381 -118 -692 -130 -207 -8 -250
-16 -250 -50 0 -12 -10 -25 -25 -32 -16 -7 -25 -19 -25 -34 0 -37 31 -177 46
-206 8 -15 14 -38 14 -52 0 -14 5 -28 10 -31 12 -8 13 -25 1 -25 -10 0 -141
259 -141 281 0 8 -4 19 -9 25 -10 10 -26 77 -44 187 -11 71 -2 101 25 81 15
-11 122 -37 247 -59 156 -28 569 -12 640 24 9 5 36 11 60 15 24 4 53 13 64 21
12 8 29 15 38 15 10 0 39 11 66 24 26 13 59 28 73 35 32 14 92 50 105 62 10
10 45 13 45 4z m-2320 -131 c0 -8 -4 -14 -9 -14 -11 0 -22 26 -14 34 9 9 23
-3 23 -20z m58 -112 c6 -18 -15 -14 -22 4 -4 10 -1 14 6 12 6 -2 14 -10 16
-16z m1992 -139 c-1 -10 -13 -36 -29 -58 -25 -36 -31 -40 -64 -37 -47 4 -107
-27 -174 -88 -54 -49 -179 -119 -251 -141 -26 -8 -51 -24 -63 -41 l-21 -28
-24 36 c-28 41 -20 64 23 64 57 0 307 147 361 212 7 9 43 24 80 34 37 10 83
28 102 40 43 28 60 30 60 7z m-789 -213 c16 -60 47 -160 59 -185 5 -11 12 -31
15 -45 6 -24 5 -24 -9 -6 -9 11 -16 25 -16 32 0 6 -7 17 -15 24 -42 35 -105
214 -105 298 0 41 4 54 23 67 l22 15 7 -77 c4 -43 12 -98 19 -123z m-1006 94
c22 -34 15 -30 -30 17 -31 32 -34 38 -13 25 15 -10 34 -28 43 -42z m635 -295
c0 -6 -4 -7 -10 -4 -5 3 -10 11 -10 16 0 6 5 7 10 4 6 -3 10 -11 10 -16z m610
-35 c0 -2 -7 -4 -15 -4 -8 0 -15 4 -15 10 0 5 7 7 15 4 8 -4 15 -8 15 -10z
m-140 -45 c0 -5 -4 -9 -10 -9 -5 0 -10 7 -10 16 0 8 5 12 10 9 6 -3 10 -10 10
-16z m60 -105 c0 -9 -5 -14 -12 -12 -18 6 -21 28 -4 28 9 0 16 -7 16 -16z
m-40 -118 c6 -8 23 -16 38 -18 33 -4 44 -38 12 -38 -11 0 -23 7 -27 16 -3 8
-16 20 -29 25 -13 4 -24 13 -24 19 0 15 16 12 30 -4z"/>
<path d="M2020 1880 c0 -5 5 -10 11 -10 5 0 7 5 4 10 -3 6 -8 10 -11 10 -2 0
-4 -4 -4 -10z"/>
</g>
</svg>
